<?xml version="1.0" encoding="UTF-8"?><svg id="Layer_2" xmlns="http://www.w3.org/2000/svg" viewBox="0 0 878.04 874.11"><defs><style>.cls-1{fill:#2a4a92;}</style></defs><g id="Layer_1-2"><g><path class="cls-1" d="M701.35,466.11c-7.88-36.32-40.72-34.24-69.58-22.76,9.86-29.65,20.81-57.09,30.95-86.39,6.78-19.28-5.64-40.96-25.23-44.85q-9.85-1.96-7.99-12.09c9-33.86-36.79-59.4-60.68-31.52-4,4.41-6.66,4.27-11.36,1.44-24.21-14.79-48.75,2.28-56.14,27.18-52.3-25.53-58.38,20.98-72.83,57.52-11.83-26.85-36.45-45.47-63.44-23.84-7.61-25.2-32.38-42.94-56.29-26.96-5.2,3.46-7.93,2.43-11.87-1.76-23.23-26.86-68.21,.96-57.56,33.82q2.51,9.54-6.84,11.97c-18.74,4.88-30.53,26.12-23.72,44.53,11.66,32.18,25.28,63.63,36.72,95.88-25.73-11.81-50.22-23.76-66.21,8.16-7.21,17.45-2.2,33.41,14.3,46.42,27.05,21.32,53.87,42.95,81.08,64.06,51.42,45.59,131.17,41.4,174.53-13.47,7.62-8.97,7.54-9.03,17.79-4.38,42.68,19.32,84.39,17.26,122.15-10.49,35.22-25.88,68.46-54.47,102.12-82.42,8.95-7.43,12.32-18.25,10.11-30.05Zm-334.41,149.68c-66.5,7.46-112.04-58.08-162.55-91.73-5.96-6.05-6.68-14.26-1.85-20.6,4.23-5.55,11.43-6.33,19.05-1.82,13.84,8.2,27.66,16.45,41.38,24.83,11.33,8.79,23.17-2.09,16.9-14.54-16.31-42.15-34.43-83.76-49.57-126.3-4-13.84,15.95-22.31,23.24-9.99,10.74,20.64,17.13,43.48,26.17,64.94,3.89,12.93,17.15,17.32,21.83,2.5-8.93-35.97-27.28-70.88-39.49-106.3-3.5-9.32-2.29-19.13,7.22-21.94,7.64-2.78,13.77,.37,17.5,9.68,6.37,15.86,12.44,31.84,18.58,47.78,6.59,17.11,13.03,34.28,19.72,51.35,3.35,8.56,8.67,12.3,14.17,10.54,6.24-1.99,8.6-9.01,5.34-18.05-8.96-25.08-19.2-49.73-28.2-74.78-6.72-21.33,18.55-27.02,25.63-8.91,11.48,28.13,22.22,56.56,33.25,84.88,3.2,7.57,6.54,20.33,17.43,16.34,6.39-2.3,8.5-7.39,6.48-13.3-4.13-12.11-8.98-23.97-13.57-35.92-4.62-12.15-17.22-35.16,2.07-40.08,6.15-1.48,11.73,1.47,14.75,8.78,7.01,16.96,13.86,34,20.42,51.13,12.11,32.32,29.56,72.16,34.34,104.96-1.68,55.48-38.01,99.94-90.23,106.54Zm307.7-133.57c-29.79,25.15-60.46,49.24-90.76,73.76-18.58,15.3-39.65,23.37-68.64,23.13-10.11-.37-24.51-3.09-38.26-9.39-6.33-2.9-8.11-6-6.44-13.32,3.55-15.6,6.78-31.48,7.77-47.4,.04-40.33-24.22-75.86-35.7-113.68-1.14-3.07-1.52-7.14-.52-10.18,6.92-21.01,14.07-41.95,21.65-62.72,3.21-8.79,11.36-12.4,18.69-9.48,7.4,2.94,10.51,10.64,7.44,19.63-6.4,20.81-15.94,40.93-20.73,62.12-.82,11.45,12.84,13.05,18.61,5.57,3.32-4.51,4.98-10.33,6.92-15.74,10.35-28.87,20.55-57.79,30.85-86.68,3.02-8.46,10.93-13.1,18.09-10.78,8.08,2.62,11.8,10.33,8.71,19.54-9.11,29.31-21.43,58.44-29.39,87.83,.42,4.22,2.31,9.87,5.44,11.75,7.22,2.72,16.1-3.86,17.41-12.01,12.56-34.75,24.21-69.84,37.07-104.48,3.82-9.14,10.86-12.73,19.12-9.8,7.49,2.65,10.01,9.85,6.54,19.63-12.64,35.51-25.92,70.8-38.63,106.28-5.77,10.32,5.97,25.28,15.79,15.15,12.78-24.16,19.17-51.88,29.71-77.2,4.2-11.2,15.68-14.41,23.38-6.92,5.06,4.92,4.66,10.67,2.41,16.77-11.06,29.94-21.95,59.95-33.09,89.86-6.11,16.4-11.11,18.42-28.67,13.93-25.9-6.63-46.78,3.58-65.14,20.76-4.13,3.87-4.3,9.26-.74,13.76,13.76,17.21,29.81-27.59,66.15-12.34,22.48,12.43,87.59-43.02,99.26-14.16,3.06,6.93,.93,12.45-4.3,16.84Z"/><path class="cls-1" d="M336.12,182.06c-.44-7.87,3.11-12.52,8.63-12.75,3.77-.15,9.95,3.07,11.2,6.29,7.71,19.83,14.54,40.01,21.16,60.24,1.9,5.82-1.63,10.47-7,12.59-5.23,2.06-10.12,.35-12.92-4.7-2.05-3.68-3.44-7.77-4.81-11.78-5.17-15.16-10.24-30.36-15.28-45.57-.62-1.88-.88-3.88-.98-4.32Z"/><path class="cls-1" d="M533.01,625.96c1.48,1.37,5.64,3.52,7.09,6.85,8.3,19.06,16.15,38.32,23.72,57.68,2.23,5.7-.91,10.28-6.01,12.99-5.48,2.91-9.88,.83-12.53-4.36-3.41-6.68-6.54-13.52-9.45-20.44-4.88-11.55-9.56-23.18-14.2-34.83-3.92-9.83,.01-17.77,11.39-17.9Z"/><path class="cls-1" d="M313.04,275.11c-2.5-1-5.2-1.65-7.45-3.05-10.66-6.62-21.2-13.42-31.75-20.21-7.2-4.63-9.39-10.71-6-16.37,3.36-5.61,9.94-6.64,17.11-2.18,11.08,6.9,22.23,13.73,32.78,21.38,3.41,2.47,7.32,7.69,6.91,11.16-.56,4.74-4.61,9.62-11.6,9.26Z"/><path class="cls-1" d="M428.4,239.56c-9.64-.1-15.29-7.05-12.94-14.22,4.54-13.8,9.64-27.44,15.13-40.9,2.58-6.33,8.75-8.47,14.31-5.57,5.29,2.76,7.06,7.89,5.2,13.37-4.59,13.52-9.35,27.01-14.76,40.21-1.38,3.36-5.43,5.63-6.94,7.11Z"/><path class="cls-1" d="M484.49,651.47c-.74,3.16-1.34,6.37-2.26,9.48-3.27,11.03-6.37,22.11-10.08,32.99-2.51,7.35-8.1,10.53-13.56,8.78-6.46-2.07-9.03-7.2-6.81-15.06,3.67-13.01,7.56-25.95,11.68-38.82,1.82-5.69,6.38-9.18,12.15-7.21,3.84,1.31,6.75,5.35,10.07,8.17-.4,.56-.8,1.12-1.19,1.68Z"/><path class="cls-1" d="M581.42,593.06c6.52,3.1,11.56,5.25,16.37,7.83,8.16,4.38,16.17,9.03,24.25,13.55,8.68,4.86,11,14.49,4.25,19.52-2.34,1.74-7.01,2.85-9.33,1.69-13.86-6.98-27.59-14.29-40.73-22.51-2.71-1.69-4.4-8.09-3.52-11.55,.84-3.34,5.6-5.69,8.71-8.53Z"/></g><g><path class="cls-1" d="M721.05,755.09l13.38-11.4,8.78,10.3-39.06,33.29-8.78-10.3,13.38-11.4-30.85-36.2,12.3-10.49,30.85,36.2Z"/><path class="cls-1" d="M690.22,797.05l-35.15,22.15-7.22-11.45,21.47-13.53-5.11-8.11-18.29,11.53-7.22-11.45,18.29-11.53-5.81-9.23-22.27,14.03-7.22-11.45,35.95-22.65,32.58,51.7Z"/><path class="cls-1" d="M626.52,833.52l-17.86,7.96-41.7-48.31,15.63-6.97,18.36,24.34c3.57,4.79,8.19,10.76,11.92,15.89l.34-.15c-1.33-6.2-2.85-13.55-4.02-19.41l-5.83-29.93,15.11-6.74,8.05,63.31Zm-9.78-34.65l-27.13,12.09-5.09-11.42,27.13-12.09,5.09,11.42Z"/><path class="cls-1" d="M580.95,852.55l-15.82,4.49-10.23-17.81-3.78-7.13-.36,.1,.53,8.06,.65,20.53-15.82,4.49-16.69-58.77,12.84-3.65,3.93,13.83c1.98,6.96,5.25,23.33,6.48,30.4l.27-.08,.02-18.86,.04-11.54,6.87-1.95,6.28,9.75,9.47,16.17,.36-.1c-2.67-6.67-8.48-22.31-10.46-29.27l-3.93-13.83,12.66-3.59,16.68,58.77Z"/><path class="cls-1" d="M456.15,827.7l-15.6-.16-.32,30.83,13.16,.13-.1,9.96c-8.47,1.23-12.62,2.69-17.54,5.65l-11.84-.12,.48-46.62-12.78-.13,.13-12.97,44.55,.46-.13,12.97Z"/><path class="cls-1" d="M399.5,843.39c-3.14,20.15-14.1,28.81-27.94,26.65-13.84-2.16-21.64-13.75-18.49-33.9,3.15-20.15,14.19-29.37,28.03-27.21,13.84,2.16,21.55,14.3,18.41,34.46Zm-32.32-5.04c-2.29,14.67,1.37,18.67,6.29,19.44s9.62-1.92,11.91-16.6c2.29-14.67-1.28-19.23-6.2-20-4.92-.77-9.71,2.48-12,17.15Z"/><path class="cls-1" d="M338.62,839.43l-42.4-13.07,3.32-10.78,42.4,13.07-3.32,10.78Z"/><path class="cls-1" d="M261.43,806.33c-1.73,3.65-4.64,8.93-6.54,12.51l.34,.16c3.31-2.39,7.13-4.53,10.62-6.84l9.95-6.53-31.27-14.79,5.22-11.05,45.04,21.3-4.82,10.2-35.77,21.77-18.02-8.52,25.48-53.88,13.6,6.43-13.82,29.23Z"/><path class="cls-1" d="M164,779.51l-12.07-10.76,15.14-16.98-9.83-8.76-15.13,16.98-12.07-10.76,40.65-45.62,12.07,10.76-16.14,18.11,9.83,8.76,16.14-18.11,12.07,10.76-40.65,45.62Z"/><path class="cls-1" d="M153.77,705.5l-8.94-10.65-26.06,21.88,8.94,10.65-10.37,8.7-28.29-33.69,10.37-8.7,8.95,10.65,26.06-21.88-8.95-10.65,10.37-8.7,28.29,33.69-10.37,8.7Z"/><path class="cls-1" d="M105.57,672.74c-17.58,10.89-34.11,5.99-42.48-7.51-4.36-7.03-4.28-14.04-2.89-19.66l13.12,2.26c-.74,3.44-.73,6.31,1.59,10.07,3.52,5.67,11.98,6.84,21.41,1,9.75-6.04,12.95-13,8.35-20.43-.79-1.28-2-2.52-3.14-2.92l-7.19,4.46,4.01,6.47-11.19,6.93-11.59-18.7,24.77-15.35c5.38,1.54,12.53,5.95,16.64,12.58,8.27,13.34,6.31,29.82-11.42,40.81Z"/><path class="cls-1" d="M46.24,633.5l-6.47-14.82,20.84-9.11-5.27-12.06-20.84,9.11-6.47-14.82,55.99-24.46,6.47,14.81-22.22,9.71,5.27,12.06,22.22-9.71,6.47,14.82-55.99,24.46Z"/><path class="cls-1" d="M6.24,511.01L.98,469.52l13.43-1.7,3.23,25.46,11.56-1.47-2.77-21.82,13.43-1.7,2.77,21.82,22.2-2.81,2.03,16.04-60.62,7.68Z"/><path class="cls-1" d="M47.56,451.83l.25-13.91-34.02-.61-.25,13.91-13.54-.24,.79-43.99,13.53,.24-.25,13.91,34.02,.61,.25-13.91,13.54,.24-.79,43.99-13.54-.24Z"/><path class="cls-1" d="M1.56,393.8l2.77-16.88,27.38-1.99c6.67-.62,13.07-.72,19.84-1.32l.06-.37c-6.22-2.73-12.24-4.96-18.38-7.58l-25.34-10.44,2.67-16.33,57.38,27.69-3.16,19.29-63.21,7.93Z"/><path class="cls-1" d="M14.55,324.48l12.54-39.61,12.91,4.08-7.66,24.2,9.14,2.89,6.52-20.61,12.91,4.08-6.52,20.61,10.4,3.29,7.94-25.09,12.91,4.08-12.82,40.51-58.25-18.44Z"/><path class="cls-1" d="M91.17,217.75c-5.54-3.72-7.42-10.87-3.34-16.96s11.42-7.06,16.96-3.34c5.62,3.77,7.42,10.87,3.34,16.96-4.09,6.09-11.34,7.11-16.96,3.33Z"/><path class="cls-1" d="M161.63,114.74l-13.55,11.2-8.62-10.43,39.55-32.7,8.62,10.43-13.55,11.2,30.31,36.66-12.46,10.3-30.31-36.65Z"/><path class="cls-1" d="M193.12,73.23l35.48-21.62,7.04,11.56-21.67,13.21,4.99,8.19,18.46-11.25,7.04,11.56-18.46,11.25,5.67,9.31,22.48-13.69,7.04,11.56-36.29,22.11-31.79-52.18Z"/><path class="cls-1" d="M257.33,37.74l17.97-7.69,40.97,48.92-15.73,6.73-17.99-24.61c-3.5-4.84-8.03-10.88-11.68-16.06l-.35,.15c1.23,6.22,2.65,13.59,3.73,19.47l5.38,30.01-15.21,6.51-7.1-63.42Zm9.26,34.78l27.31-11.69,4.92,11.49-27.31,11.69-4.92-11.49Z"/><path class="cls-1" d="M303.18,19.38l15.89-4.26,9.97,17.96,3.68,7.19,.36-.1-.41-8.07-.34-20.54,15.89-4.26,15.81,59.02-12.89,3.45-3.72-13.89c-1.87-6.99-4.91-23.4-6.03-30.5l-.27,.07-.3,18.86-.22,11.54-6.9,1.85-6.14-9.84-9.23-16.31-.36,.1c2.58,6.71,8.15,22.44,10.02,29.43l3.72,13.89-12.71,3.41-15.81-59.02Z"/><path class="cls-1" d="M427.61,46.1l15.6,.4,.78-30.82-13.15-.33,.25-9.96c8.49-1.1,12.66-2.5,17.63-5.38l11.84,.3-1.19,46.61,12.78,.33-.33,12.97-44.54-1.13,.33-12.97Z"/><path class="cls-1" d="M484.46,31.27c3.45-20.1,14.54-28.6,28.34-26.23,13.8,2.37,21.43,14.07,17.98,34.17s-14.63,29.15-28.44,26.78c-13.8-2.37-21.33-14.63-17.88-34.73Zm32.24,5.53c2.51-14.64-1.09-18.69-6-19.53-4.91-.84-9.65,1.78-12.16,16.41-2.51,14.64,.99,19.24,5.9,20.09,4.91,.84,9.75-2.33,12.26-16.97Z"/><path class="cls-1" d="M545.29,36.14l42.2,13.7-3.48,10.73-42.2-13.7,3.48-10.73Z"/><path class="cls-1" d="M622.02,70.4c1.78-3.63,4.76-8.87,6.71-12.41l-.34-.17c-3.34,2.34-7.2,4.43-10.71,6.69l-10.04,6.39,31.06,15.22-5.38,10.97-44.74-21.93,4.96-10.13,36.07-21.27,17.9,8.77-26.23,53.52-13.51-6.62,14.23-29.04Z"/><path class="cls-1" d="M719,98.67l11.91,10.94-15.39,16.75,9.69,8.9,15.39-16.75,11.91,10.94-41.34,44.99-11.9-10.94,16.41-17.86-9.69-8.9-16.41,17.86-11.91-10.94,41.34-44.99Z"/><path class="cls-1" d="M728.11,172.82l8.79,10.79,26.39-21.49-8.79-10.79,10.5-8.55,27.78,34.12-10.5,8.55-8.78-10.79-26.39,21.49,8.79,10.79-10.5,8.55-27.78-34.12,10.5-8.55Z"/><path class="cls-1" d="M775.81,206.3c17.74-10.63,34.2-5.47,42.36,8.15,4.25,7.1,4.07,14.11,2.6,19.7l-13.09-2.46c.79-3.43,.83-6.3-1.44-10.09-3.43-5.73-11.88-7.02-21.39-1.32-9.84,5.89-13.15,12.81-8.66,20.31,.77,1.29,1.96,2.55,3.09,2.97l7.26-4.35-3.91-6.53,11.29-6.76,11.3,18.87-25,14.98c-5.35-1.62-12.44-6.13-16.45-12.83-8.07-13.47-5.86-29.91,12.04-40.63Z"/><path class="cls-1" d="M834.55,246.43l6.25,14.91-20.98,8.79,5.09,12.14,20.98-8.79,6.25,14.91-56.35,23.62-6.25-14.91,22.37-9.37-5.09-12.14-22.37,9.38-6.25-14.91,56.35-23.62Z"/><path class="cls-1" d="M872.72,369.53l4.64,41.57-13.45,1.5-2.84-25.5-11.58,1.29,2.44,21.86-13.45,1.5-2.44-21.86-22.24,2.48-1.79-16.07,60.73-6.77Z"/><path class="cls-1" d="M830.51,428.07l-.46,13.9,34.01,1.12,.46-13.9,13.53,.45-1.45,43.97-13.53-.45,.46-13.9-34.01-1.12-.46,13.9-13.53-.45,1.45-43.97,13.53,.45Z"/><path class="cls-1" d="M875.63,486.81l-3.02,16.84-27.41,1.58c-6.68,.52-13.08,.52-19.86,1.02l-.07,.37c6.18,2.83,12.16,5.14,18.26,7.86l25.18,10.82-2.92,16.29-56.95-28.55,3.45-19.25,63.33-6.98Z"/><path class="cls-1" d="M861.59,555.86l-13.12,39.42-12.84-4.28,8.02-24.08-9.1-3.03-6.83,20.51-12.84-4.28,6.83-20.51-10.35-3.44-8.31,24.97-12.84-4.28,13.42-40.31,57.97,19.3Z"/><path class="cls-1" d="M783.4,661.44c5.49,3.8,7.26,10.98,3.08,17-4.18,6.03-11.52,6.88-17,3.08-5.56-3.85-7.26-10.98-3.08-17,4.18-6.03,11.44-6.94,17-3.08Z"/></g></g></svg>